# xmcd CD database file
#
# Track frame offsets:
#	150
#	20957
#	40217
#	69620
#	96870
#	120155
#	142675
#	169935
#	185560
#
# Disc length: 2719 seconds
#
# Revision: 0
# Processed by: cddbd v1.5.1PL0 Copyright (c) Steve Scherf et al.
# Submitted via: CDex 1.60beta1
#
DISCID=770a9d09
DTITLE=Royce Campbell Trio - Make Me Rainbows
DYEAR=1995
DGENRE=Jazz
TTITLE0=Mr. Montgomery
TTITLE1=Softly, As In A Morning Sunrise
TTITLE2=Ruby
TTITLE3=Make Me Rainbows
TTITLE4=Royce's Riff
TTITLE5=If I Should Lose You
TTITLE6=You Go To My Head
TTITLE7=Sagittarius
TTITLE8=Could It Be You
EXTD=YEAR: 1995
EXTT0=
EXTT1=
EXTT2=
EXTT3=
EXTT4=
EXTT5=
EXTT6=
EXTT7=
EXTT8=
PLAYORDER=
